HIERARCHY
ROOT hip
{
	OFFSET 0.000000 0.000000 0.000000 
	CHANNELS 6 Xposition Yposition Zposition Xrotation Zrotation Yrotation
	JOINT abdomen
	{
		OFFSET 0.000000 3.402643 0.000000 
		CHANNELS 3 Xrotation Zrotation Yrotation
		JOINT chest
		{
			OFFSET 0.000000 8.438565 -0.680529 
			CHANNELS 3 Xrotation Zrotation Yrotation
			JOINT neck
			{
				OFFSET 0.000000 10.207942 -0.272212 
				CHANNELS 3 Xrotation Zrotation Yrotation
				JOINT head
				{
					OFFSET 0.000000 3.130431 0.000000 
					CHANNELS 3 Xrotation Zrotation Yrotation
					End Site
					{
						OFFSET 0.000000 3.130435 0.000000 
					}
				}
			}
			JOINT lCollar
			{
				OFFSET 3.470700 6.669187 -0.816635 
				CHANNELS 3 Yrotation Zrotation Xrotation
				JOINT lShldr
				{
					OFFSET 3.198488 0.000000 0.000000 
					CHANNELS 3 Zrotation Yrotation Xrotation
					JOINT lForeArm
					{
						OFFSET 10.139888 0.000000 0.000000 
						CHANNELS 3 Yrotation Zrotation Xrotation
						JOINT lHand
						{
							OFFSET 8.370511 0.000000 0.000000 
							CHANNELS 3 Zrotation Yrotation Xrotation
							End Site
							{
								OFFSET 4.083176 0.000000 0.000000 
							}
						}
					}
				}
			}
			JOINT rCollar
			{
				OFFSET -3.470700 6.669187 -0.816635 
				CHANNELS 3 Yrotation Zrotation Xrotation
				JOINT rShldr
				{
					OFFSET -3.198488 0.000000 0.000000 
					CHANNELS 3 Zrotation Yrotation Xrotation
					JOINT rForeArm
					{
						OFFSET -10.139888 0.000000 0.000000 
						CHANNELS 3 Yrotation Zrotation Xrotation
						JOINT rHand
						{
							OFFSET -8.370511 0.000000 0.000000 
							CHANNELS 3 Zrotation Yrotation Xrotation
							End Site
							{
								OFFSET -4.083176 0.000000 0.000000 
							}
						}
					}
				}
			}
		}
	}
	JOINT lThigh
	{
		OFFSET 5.308129 -1.633274 1.361059 
		CHANNELS 3 Xrotation Zrotation Yrotation
		JOINT lShin
		{
			OFFSET -2.041588 -20.007561 0.000000 
			CHANNELS 3 Xrotation Zrotation Yrotation
			JOINT lFoot
			{
				OFFSET 0.000000 -19.190928 -1.224953 
				CHANNELS 3 Xrotation Yrotation Zrotation
				End Site
				{
					OFFSET 0.000000 -2.449906 4.627600 
				}
			}
		}
	}
	JOINT rThigh
	{
		OFFSET -5.308129 -1.633274 1.361059 
		CHANNELS 3 Xrotation Zrotation Yrotation
		JOINT rShin
		{
			OFFSET 2.041588 -20.007561 0.000000 
			CHANNELS 3 Xrotation Zrotation Yrotation
			JOINT rFoot
			{
				OFFSET 0.000000 -19.190928 -1.224953 
				CHANNELS 3 Xrotation Yrotation Zrotation
				End Site
				{
					OFFSET 0.000000 -2.449906 4.627600 
				}
			}
		}
	}
}
MOTION
Frames: 20
Frame Time: 0.016667
-2.083077 53.518471 58.997177 9.178629 -6.913173 12.245053 24.209106 -0.178136 3.865191 -17.554211 4.432853 2.545120 24.175758 1.995805 -8.830744 27.063503 3.070566 -3.900707 1.993417 -2.013218 -0.007815 -79.424210 35.341591 17.683018 -54.802528 0.999971 6.163277 -0.181723 -0.029046 -7.500002 -2.003164 1.994041 -0.018257 73.642365 15.044117 28.604649 138.401367 -2.899201 3.422079 2.801126 -3.024616 2.434950 -35.308311 8.172684 -1.251360 63.902702 -1.655837 -3.718527 -2.988066 -0.036909 -0.004557 -20.810183 2.636287 -6.800074 38.143425 3.142116 2.587646 -0.488114 0.004926 0.022815 
-2.224235 53.777611 59.794704 8.516090 -8.674320 13.792787 24.269381 0.676602 3.781709 -17.572206 4.367206 2.349340 24.118851 2.103677 -8.980239 27.044909 3.105892 -3.981670 1.993417 -2.013218 -0.007815 -78.931244 36.321980 17.506201 -56.135986 0.997306 6.149467 -0.181723 -0.029046 -7.500002 -2.003164 1.994041 -0.018257 73.762489 14.813425 28.501484 138.722427 -2.888157 3.418126 2.801126 -3.024616 2.434950 -41.131008 8.475909 -3.876217 68.640038 -1.344828 -3.851587 -2.988270 0.007637 0.003126 -17.257875 4.978465 -6.872964 32.493729 3.411180 2.238972 -0.498011 -0.009031 0.006993 
-2.341503 53.502552 60.641197 7.964411 -9.199068 14.518804 24.300383 0.943459 3.863572 -17.628941 4.282028 2.342121 24.205492 2.022068 -9.139985 27.093309 3.087152 -4.075800 1.993417 -2.013218 -0.007815 -78.389519 36.792496 17.452526 -56.234108 1.000349 6.153857 -0.181723 -0.029046 -7.500002 -2.003164 1.994041 -0.018257 74.069641 14.495649 28.322945 138.927475 -2.889690 3.429382 2.801126 -3.024616 2.434950 -44.469910 7.772937 -5.148722 68.777298 -1.354130 -3.848174 -2.978400 -0.028049 -0.000928 -14.213946 6.130519 -6.345643 27.844210 3.605771 1.909816 -0.487310 0.028780 0.011052 
-2.321632 52.750622 61.426987 7.899572 -9.394050 13.565741 24.211563 0.810513 4.300087 -17.727512 3.879501 2.560005 24.306110 1.530873 -9.045017 27.119345 2.964659 -4.058354 1.993417 -2.013218 -0.007815 -78.576057 36.981533 16.627579 -55.381042 1.002692 6.164073 -0.181723 -0.029046 -7.500002 -2.003164 1.994041 -0.018257 74.168762 14.441088 28.538857 139.015305 -2.884430 3.433808 2.801126 -3.024616 2.434950 -45.801311 7.391595 -6.332712 65.005844 -1.588699 -3.775924 -2.988281 0.000000 0.000000 -12.689796 6.530471 -7.186104 25.944191 3.664632 1.803051 -0.497923 0.010392 0.003992 
-2.206118 51.850708 62.116184 7.842858 -9.511463 11.897763 24.221560 0.846074 4.755707 -17.792643 3.719946 2.762884 23.927044 0.571293 -8.633155 26.871384 2.831721 -3.907666 1.993417 -2.013218 -0.007815 -79.990097 36.967758 15.326890 -54.037849 1.001524 6.171515 -0.181723 -0.029046 -7.500002 -2.003164 1.994041 -0.018257 73.588112 14.973547 29.055204 138.849701 -2.887007 3.431858 2.801126 -3.024616 2.434950 -45.736252 7.128831 -8.988679 62.416668 -1.763217 -3.695055 -2.978503 0.008235 0.003370 -12.277784 6.657060 -8.837375 27.006828 3.596213 1.885336 -0.497519 0.017688 0.017256 
-2.072743 51.034294 62.717701 7.345288 -10.287810 10.476588 24.412617 1.449542 5.189114 -17.904062 3.894267 2.844863 23.555511 -0.465500 -8.093636 26.632587 2.662976 -3.674701 1.993417 -2.013218 -0.007815 -82.586922 36.133396 13.616945 -51.813751 1.010581 6.183780 -0.181723 -0.029046 -7.500002 -2.003164 1.994041 -0.018257 72.613449 15.769407 29.515375 138.411133 -2.898618 3.422573 2.801126 -3.024616 2.434950 -45.235065 7.344036 -11.935259 63.394024 -1.709081 -3.723525 -2.978487 0.009322 0.014363 -12.498035 7.391016 -10.203399 29.830011 3.528041 2.055594 -0.486995 0.033116 0.012717 
-1.969895 50.626633 63.258381 7.112932 -11.369224 9.507603 24.686314 2.138633 5.357763 -17.968056 4.125216 2.785322 23.617044 -0.993213 -7.641381 26.648769 2.514142 -3.436137 1.993417 -2.013218 -0.007815 -85.198822 34.698338 11.704726 -49.893803 1.018266 6.198646 -0.181723 -0.029046 -7.500002 -2.003164 1.994041 -0.018257 72.399467 16.344755 30.072985 137.981918 -2.903138 3.406560 2.801126 -3.024616 2.434950 -45.040104 7.588383 -13.255038 65.112953 -1.611351 -3.797416 -2.988281 -0.005564 0.018821 -13.580229 8.074050 -11.647478 33.074322 3.411251 2.242189 -0.478157 0.024229 -0.011620 
-1.987190 50.713638 63.868130 7.450988 -11.341499 9.073563 24.946650 2.470737 5.143149 -17.836042 4.723605 2.623169 23.763149 -0.938473 -7.424993 26.716034 2.460298 -3.283678 1.993417 -2.013218 -0.007815 -86.297272 33.599079 11.648254 -49.913227 1.016157 6.198993 -0.181723 -0.029046 -7.500002 -2.003164 1.994041 -0.018257 72.979507 16.506458 30.690865 137.699188 -2.912707 3.398740 2.801126 -3.024616 2.434950 -44.437168 6.953476 -12.962883 65.288406 -1.601528 -3.813625 -2.998026 -0.010430 -0.004270 -14.782706 7.498877 -12.569588 35.507729 3.278910 2.410189 -0.496329 0.038635 0.014841 
-2.047962 51.098782 64.594421 8.125533 -11.236648 9.195571 25.071978 2.839905 4.707044 -17.453396 5.414201 2.392786 24.025272 -0.686815 -7.317956 26.824673 2.510262 -3.223354 1.993417 -2.013218 -0.007815 -86.285667 32.756565 13.007460 -50.883324 1.017855 6.191641 -0.181723 -0.029046 -7.500002 -2.003164 1.994041 -0.018257 73.577156 16.369617 31.213432 137.396927 -2.923424 3.389913 2.801126 -3.024616 2.434950 -43.452652 6.406358 -12.892690 64.253677 -1.689579 -3.763870 -2.978509 -0.010120 0.006408 -15.202982 7.137871 -12.659559 35.832172 3.249824 2.464214 -0.527329 -0.003692 -0.001419 
-2.012983 51.580368 65.358223 9.322722 -11.886526 9.468911 24.858147 3.288150 4.266631 -17.036179 5.575902 2.152525 24.552279 -0.612907 -7.252730 27.089117 2.530480 -3.188725 1.993417 -2.013218 -0.007815 -86.078842 31.898951 13.078724 -51.548824 1.003989 6.181952 -0.181723 -0.029046 -7.500002 -2.003164 1.994041 -0.018257 73.879799 16.032232 31.545631 137.114532 -2.925822 3.388703 2.801126 -3.024616 2.434950 -42.965302 6.543044 -14.152479 62.425613 -1.816372 -3.726525 -2.988235 -0.015564 -0.006370 -15.282994 7.548093 -12.686052 34.228828 3.318255 2.348913 -0.516908 0.024618 0.009461 
-1.918351 52.079769 66.033806 10.590275 -12.120554 9.039771 24.606524 3.392531 4.013508 -16.837553 5.497561 2.060131 24.788326 -0.886600 -7.138041 27.224573 2.466600 -3.135813 1.993417 -2.013218 -0.007815 -86.070862 31.138836 11.766098 -52.245426 1.014654 6.176786 -0.181723 -0.029046 -7.500002 -2.003164 1.994041 -0.018257 73.835861 15.971469 31.863291 136.889633 -2.932401 3.370094 2.801126 -3.024616 2.434950 -42.253513 6.787214 -15.395076 60.215843 -1.943329 -3.668525 -2.998044 -0.004003 -0.001639 -15.669439 7.430235 -13.135282 33.243229 3.376832 2.274478 -0.526181 0.032725 0.012580 
-1.821830 52.595757 66.640167 11.501123 -11.441841 7.639215 24.619354 3.134550 4.023786 -16.802177 5.629575 2.112441 24.588140 -1.429752 -6.826030 27.163866 2.372323 -3.011559 1.993417 -2.013218 -0.007815 -86.093483 30.600504 10.731525 -53.097477 1.008766 6.175737 -0.181723 -0.029046 -7.500002 -2.003164 1.994041 -0.018257 73.532127 16.560131 32.218964 136.597855 -2.942104 3.375550 2.801126 -3.024616 2.434950 -40.637672 6.983033 -15.667161 57.723000 -2.080050 -3.563064 -2.978429 -0.016960 -0.017488 -16.282938 6.600295 -13.067785 33.441284 3.356740 2.283094 -0.514635 0.058468 0.001547 
-1.702930 53.112965 67.303337 12.255075 -10.397769 6.426719 24.759176 2.847104 3.822401 -16.552448 5.814898 2.084798 24.517021 -1.946000 -6.356202 27.162590 2.311503 -2.798605 1.993417 -2.013218 -0.007815 -85.751266 30.255962 10.443184 -53.499260 1.008539 6.175144 -0.181723 -0.029046 -7.500002 -2.003164 1.994041 -0.018257 73.359001 17.382936 32.439442 136.324875 -2.951106 3.368212 2.801126 -3.024616 2.434950 -38.967514 6.631325 -15.507659 55.363945 -2.238068 -3.513485 -2.968736 0.012469 -0.005447 -16.735237 5.526512 -12.344411 33.647846 3.347165 2.305014 -0.498013 0.005438 0.002089 
-1.534993 53.586864 68.045822 12.975291 -9.787756 6.125456 24.727850 2.759074 3.369975 -16.215538 5.712268 1.926409 24.775494 -2.208058 -5.970304 27.328165 2.282031 -2.610044 1.993417 -2.013218 -0.007815 -85.028557 30.048386 10.126404 -53.430302 1.002267 6.171902 -0.181723 -0.029046 -7.500002 -2.003164 1.994041 -0.018257 73.285339 17.666550 32.571106 136.227264 -2.956839 3.363180 2.801126 -3.024616 2.434950 -38.323166 6.026107 -15.238405 54.062630 -2.314392 -3.457556 -2.988240 0.018158 -0.003117 -16.715313 4.677117 -12.286841 33.046940 3.376710 2.260241 -0.516198 0.035313 0.013572 
-1.355928 54.036755 68.834991 13.344252 -9.592490 6.231602 24.639097 2.725512 3.007675 -16.029266 5.370056 1.770731 25.030188 -2.238915 -5.830581 27.445602 2.288282 -2.532523 1.993417 -2.013218 -0.007815 -84.033356 29.934570 9.963173 -53.401173 1.005417 6.171388 -0.181723 -0.029046 -7.500002 -2.003164 1.994041 -0.018257 73.058922 17.361757 32.791515 136.324875 -2.951106 3.368212 2.801126 -3.024616 2.434950 -38.535278 5.782019 -14.150578 54.102856 -2.324122 -3.426455 -3.007764 -0.015951 -0.006531 -15.748229 4.169651 -12.924582 31.391573 3.435050 2.165145 -0.477587 0.041695 -0.025836 
-1.214568 54.538040 69.667458 13.129809 -8.905551 6.173402 24.572720 2.344909 2.810391 -16.050308 5.050186 1.743106 25.253181 -2.137646 -5.832232 27.553085 2.286051 -2.538001 1.993417 -2.013218 -0.007815 -82.824883 29.986357 10.173395 -53.508965 1.007489 6.175316 -0.181723 -0.029046 -7.500002 -2.003164 1.994041 -0.018257 72.978058 16.747721 32.989906 136.344055 -2.957024 3.362486 2.801126 -3.024616 2.434950 -38.766678 5.683332 -11.747348 54.953922 -2.242372 -3.476487 -2.988275 0.008825 -0.006937 -13.871158 3.407640 -13.112967 29.327019 3.538206 2.031413 -0.526872 0.024313 -0.001116 
-1.091975 55.024487 70.508957 12.816816 -7.172230 5.872311 24.510820 1.492847 2.575116 -16.240429 4.810816 1.754884 25.679369 -1.910003 -5.859674 27.729332 2.299671 -2.512148 1.993417 -2.013218 -0.007815 -81.573135 30.063177 10.305118 -53.381615 1.001691 6.163208 -0.181723 -0.029046 -7.500002 -2.003164 1.994041 -0.018257 73.391411 16.010880 33.140495 136.227264 -2.956839 3.363180 2.801126 -3.024616 2.434950 -38.720699 5.019453 -8.426498 55.875275 -2.173826 -3.469408 -2.978468 -0.019527 0.002559 -12.602458 1.728572 -12.109663 28.682617 3.485209 2.001141 -0.496959 0.030761 0.011816 
-0.949843 55.411781 71.291512 12.592197 -4.718241 5.021101 24.463345 0.337780 2.331462 -16.523384 4.757030 1.804393 26.134804 -1.657110 -5.764287 27.934896 2.312587 -2.436190 1.993417 -2.013218 -0.007815 -80.715973 29.902470 10.255439 -52.813217 1.010087 6.180569 -0.181723 -0.029046 -7.500002 -2.003164 1.994041 -0.018257 73.846924 15.443100 33.404812 136.031967 -2.954471 3.352839 2.801126 -3.024616 2.434950 -38.120934 3.935328 -4.604728 55.612179 -2.191570 -3.430487 -2.988166 -0.028050 -0.000931 -13.966532 -0.867411 -10.156490 32.146366 3.349217 2.187172 -0.496367 0.038211 0.014678 
-0.751310 55.650822 71.995140 12.314509 -2.270799 3.117322 24.523346 -0.684128 2.246398 -16.870811 4.926102 1.907170 26.498068 -1.774308 -5.279063 28.179552 2.324560 -2.182758 1.993417 -2.013218 -0.007815 -80.841446 29.433067 9.801261 -52.107681 1.008021 6.178614 -0.181723 -0.029046 -7.500002 -2.003164 1.994041 -0.018257 73.860832 15.513666 34.212017 135.876526 -2.963387 3.358562 2.801126 -3.024616 2.434950 -36.252308 3.016954 -0.981027 52.421192 -2.376816 -3.320719 -2.988268 -0.008175 -0.003346 -19.050247 -3.466430 -7.442639 40.592911 2.997738 2.667385 -0.496654 0.034790 0.013364 
-0.512480 55.659191 72.711998 11.728518 -0.028685 0.579977 24.676882 -1.490869 2.078766 -17.282366 5.269907 1.928236 26.703506 -2.329649 -4.413795 28.384750 2.320090 -1.764292 1.993417 -2.013218 -0.007815 -81.719521 29.113911 8.816858 -51.852589 1.006373 6.184468 -0.181723 -0.029046 -7.500002 -2.003164 1.994041 -0.018257 73.801956 16.142977 35.493629 135.896057 -2.962242 3.359572 2.801126 -3.024616 2.434950 -32.892242 1.981839 2.176256 46.297997 -2.773564 -3.023733 -2.988276 -0.011499 0.016391 -26.518198 -5.291998 -4.083588 51.464634 2.412056 3.210486 -0.496839 0.032411 0.012450 
